<?xml version="1.0" standalone="no"?><!DOCTYPE svg PUBLIC "-//W3C//DTD SVG 1.1//EN" "http://www.w3.org/Graphics/SVG/1.1/DTD/svg11.dtd"><svg t="1640133093098" class="icon" viewBox="0 0 1024 1024" version="1.1" xmlns="http://www.w3.org/2000/svg" p-id="3970" xmlns:xlink="http://www.w3.org/1999/xlink" width="128" height="128"><defs><style type="text/css"></style></defs><path d="M842.24 692.736V481.792h-298.496V397.824h99.84V131.072H376.832v266.752h99.84v83.968H181.76v210.944h-66.56v200.192h200.192v-200.192h-66.56v-144.384h228.352v144.384h-66.56v200.192h200.192v-200.192h-66.56v-144.384h231.936v144.384h-66.56v200.192h200.192v-200.192h-67.584zM443.392 198.144h133.12v133.12h-133.12v-133.12zM248.32 825.856h-66.56v-66.56h66.56v66.56z m294.912 0h-66.56v-66.56h66.56v66.56z m299.008 0h-66.56v-66.56h66.56v66.56z"  p-id="3971"></path></svg>