<?xml version="1.0" standalone="no"?><!DOCTYPE svg PUBLIC "-//W3C//DTD SVG 1.1//EN" "http://www.w3.org/Graphics/SVG/1.1/DTD/svg11.dtd"><svg t="1693297014548" class="icon" viewBox="0 0 1024 1024" version="1.1" xmlns="http://www.w3.org/2000/svg" p-id="2500" xmlns:xlink="http://www.w3.org/1999/xlink" width="200" height="200"><path d="M889.18 763.48H299.25V160h360.36v-33.1H293.56a27.4 27.4 0 0 0-27.37 27.37v53.09H141.57A44.65 44.65 0 0 0 97 251.95v654.68a44.65 44.65 0 0 0 44.6 44.6h640.18a44.65 44.65 0 0 0 44.6-44.6V796.54h68.49a27.4 27.4 0 0 0 27.37-27.37V318.95h-33.06zM760.27 885.11H163.09V273.47h103.1v495.7a27.4 27.4 0 0 0 27.37 27.37h466.71z" p-id="2501"></path><path d="M467.59 572.18h115.89L962.64 192 840.53 73.46 467.59 461.2z m33.06-97.66l340.68-354.2 74.24 72.1-345.8 346.7h-69.12z" p-id="2502"></path></svg>