<?xml version="1.0" standalone="no"?><!DOCTYPE svg PUBLIC "-//W3C//DTD SVG 1.1//EN" "http://www.w3.org/Graphics/SVG/1.1/DTD/svg11.dtd"><svg t="1677895729989" class="icon" viewBox="0 0 1024 1024" version="1.1" xmlns="http://www.w3.org/2000/svg" p-id="3304" xmlns:xlink="http://www.w3.org/1999/xlink" width="128" height="128"><path d="M513.706667 106.666667 406.613333 213.333333 619.946667 213.333333 513.706667 106.666667M170.666667 298.666667 170.666667 853.333333 853.333333 853.333333 853.333333 298.666667 170.666667 298.666667M512 0 725.333333 213.333333 725.333333 213.333333 853.333333 213.333333C900.266667 213.333333 938.666667 251.733333 938.666667 298.666667L938.666667 853.333333C938.666667 900.266667 900.266667 938.666667 853.333333 938.666667L170.666667 938.666667C123.733333 938.666667 85.333333 900.266667 85.333333 853.333333L85.333333 298.666667C85.333333 251.733333 123.733333 213.333333 170.666667 213.333333L298.666667 213.333333 298.666667 213.333333 512 0M298.666667 768 298.666667 597.333333 512 597.333333 512 768 298.666667 768M597.333333 725.333333 597.333333 426.666667 768 426.666667 768 725.333333 597.333333 725.333333M256 512 256 384 469.333333 384 469.333333 512 256 512Z" p-id="3305"></path></svg>