<?xml version="1.0" standalone="no"?><!DOCTYPE svg PUBLIC "-//W3C//DTD SVG 1.1//EN" "http://www.w3.org/Graphics/SVG/1.1/DTD/svg11.dtd"><svg t="1642821275734" class="icon" viewBox="0 0 1980 1024" version="1.1" xmlns="http://www.w3.org/2000/svg" p-id="2354" xmlns:xlink="http://www.w3.org/1999/xlink" width="247.5" height="128"><defs><style type="text/css"></style></defs><path d="M1840.52736 0H132.13184C59.15648 0 0 59.15648 0 132.13184v759.73632C0 964.8384 59.15648 1024 132.13184 1024h1708.3904c72.97536 0 132.13696-59.1616 132.13696-132.13184V132.13184C1972.65408 59.15648 1913.49248 0 1840.52736 0z m-1209.8048 717.7728c-12.25728 46.16704-46.57664 69.25312-102.9632 69.25312H201.71264c-62.5152 0-93.76768-32.2816-93.76768-96.83456V371.50208h52.70528v83.96288h366.49984V297.95328H85.26848v-45.34784h493.3632v285.5936h-51.4816v-37.38624H160.65024v178.35008c0 37.59104 17.77152 56.38656 53.31968 56.38656h302.14656c35.13344 0 56.38656-12.66688 63.73888-38.00064 7.35744-24.91904 12.87168-58.22464 16.54784-99.90144 15.93344 6.94784 33.50016 13.0816 52.70528 18.39104-5.71904 42.49088-11.84768 76.40576-18.38592 101.7344z m242.08896-341.36576h-66.80064v127.78496c20.8384-6.94272 42.28608-14.19776 64.35328-21.76-1.2288 17.57696-2.04288 33.91488-2.45248 49.02912a3879.41888 3879.41888 0 0 1-61.9008 22.36928v187.23328c0 42.90048-19.20512 65.16736-57.61024 66.80064-16.34816 0.81408-35.34336 1.01888-56.99584 0.6144-1.6384-16.34304-4.09088-33.09568-7.35744-50.2528 18.7904 2.03776 35.74784 3.06688 50.87232 3.06688 15.52384 0 23.28576-8.38144 23.28576-25.12896v-166.08768a8999.02464 8999.02464 0 0 1-79.67232 26.35264l-7.35744-51.4816a2381.21984 2381.21984 0 0 0 87.02976-25.73824V376.40704h-79.05792v-44.12928h79.05792V211.53792h47.80544v120.73472h66.80064v44.1344z m71.7056 408.17152c-11.8528 8.58112-21.8624 17.16224-30.03392 25.73824l-32.48128-39.83872c13.07136-11.84768 19.61472-29.21472 19.61472-52.096V218.28096h47.80544v187.54048h101.12512v45.35296h-101.12512v273.95584c27.37152-15.93344 60.8768-36.77696 100.51072-62.5152 1.2288 18.38592 2.86208 35.54816 4.90496 51.4816-52.3008 32.27648-89.07776 55.77216-110.32064 70.48192z m326.04672-50.8672c-7.35744 43.71456-30.848 65.57696-70.48192 65.57696h-59.4432c-48.62976 0-72.9344-24.92416-72.9344-74.77248V218.28096h47.80544v227.3792c44.73856-38.61504 85.39136-79.46752 121.9584-122.5728l38.00064 34.31936c-56.38656 57.81504-109.70624 107.36128-159.95904 148.61824v209.90976c0 24.51456 10.4192 36.77696 31.25248 36.77696h36.16256c24.51456 0 38.60992-11.2384 42.28608-33.71008 4.90496-24.91904 8.78592-59.24352 11.648-102.95808a574.03904 574.03904 0 0 0 46.57664 17.77152c-3.67616 38.40512-7.96672 71.70048-12.87168 99.89632zM1346.56 788.86912l-33.09056-42.2912c14.28992-13.07648 21.44768-31.4624 21.44768-55.15776V457.30304h153.216V304.08704h-164.864v-42.90048h212.66944v272.11264h-47.80544v-33.09568h-105.41568v202.85952c49.8432-23.69536 100.92032-50.2528 153.22112-79.67744 2.86208 19.61472 6.12864 36.16256 9.8048 49.64352-53.11488 26.56256-107.66336 55.57248-163.6352 87.02976-15.11936 10.624-26.96704 20.22912-35.54816 28.81024z m526.45888 17.16224c-70.28224-33.5104-124.71808-70.69184-163.328-111.54432-41.6768 42.49088-104.0896 82.93888-187.22816 121.34912-9.80992-14.30528-21.86752-28.80512-36.16256-43.51488 85.59616-35.74784 149.22752-74.77248 190.90432-117.05856-37.79584-52.50048-63.73376-122.88-77.83424-211.13344-10.41408 21.44768-20.9408 41.984-31.55968 61.5936-10.21952-14.70976-20.4288-27.58144-30.6432-38.60992 38.8096-70.6816 73.54368-156.69248 104.192-258.0224l48.41472 14.09536a2154.5984 2154.5984 0 0 1-35.24096 94.3872h247.9104v45.34784h-71.71072c-11.02848 132.3776-40.7552 230.44096-89.16992 294.17984 39.6288 42.2912 96.32256 75.99616 170.07104 101.12512-11.8528 11.43808-24.72448 27.37664-38.61504 47.80544z"  p-id="2355"></path><path d="M1636.1472 362.92096l-5.82656 13.48608c14.30016 103.57248 40.6528 183.65952 79.06304 240.24576 38.1952-55.77216 62.61248-140.34944 73.23648-253.73184H1636.1472z"  p-id="2356"></path></svg>