<?xml version="1.0" standalone="no"?><!DOCTYPE svg PUBLIC "-//W3C//DTD SVG 1.1//EN" "http://www.w3.org/Graphics/SVG/1.1/DTD/svg11.dtd"><svg t="1677896449682" class="icon" viewBox="0 0 1024 1024" version="1.1" xmlns="http://www.w3.org/2000/svg" p-id="6693" xmlns:xlink="http://www.w3.org/1999/xlink" width="128" height="128"><path d="M819.261501 206.330252l-614.525048 0.113587c-15.445784 0-27.933189 12.30628-27.933189 27.669176l0 388.961756c0 15.368012 12.487406 27.782763 27.933189 27.782763l614.525048 0c15.445784 0 27.933189-12.414751 27.933189-27.782763L847.19469 234.114039C847.19469 218.751143 834.707284 206.330252 819.261501 206.330252L819.261501 206.330252zM819.261501 623.188358 204.737476 623.188358 204.737476 234.114039l614.525048 0L819.262524 623.188358 819.261501 623.188358zM875.127879 95.311763 148.871097 95.311763c-46.286186 0-83.798545 37.286208-83.798545 83.349313l0 555.659359c0 45.955658 37.373189 83.184561 83.519182 83.292008l279.609209 0 0 33.813107-174.358073 22.530133c-12.455683 3.087315-21.172205 14.20042-21.172205 26.949792 0 15.368012 12.487406 27.782763 27.933189 27.782763l502.793314 0c15.445784 0 27.933189-12.414751 27.933189-27.782763 0-12.749372-8.716522-23.862477-21.172205-26.975375l-174.358073-22.50455 0-33.813107 279.609209 0c46.145993-0.107447 83.519182-37.337373 83.519182-83.292008L958.92847 178.661076C958.926424 132.597971 921.382343 95.311763 875.127879 95.311763L875.127879 95.311763zM903.061069 734.320435c0 15.306614-12.543687 27.782763-27.933189 27.782763L148.871097 762.103198c-15.420201 0-27.933189-12.477172-27.933189-27.782763L120.937908 178.661076c0-15.337313 12.512988-27.782763 27.933189-27.782763l726.256782 0c15.388479 0 27.933189 12.44545 27.933189 27.782763L903.061069 734.320435 903.061069 734.320435zM903.061069 734.320435"  p-id="6694"></path></svg>