<svg class="icon" viewBox="0 0 1097 1024" xmlns="http://www.w3.org/2000/svg" width="137.125" height="128"><defs><style/></defs><path d="M731.429 530.286c0-10.277-8.01-18.286-18.286-18.286h-128V310.857c0-9.728-8.558-18.286-18.286-18.286H457.143c-9.728 0-18.286 8.558-18.286 18.286V512h-128c-10.276 0-18.286 8.558-18.286 18.286 0 4.571 1.72 9.728 5.157 13.129l201.143 201.143A18.103 18.103 0 0 0 512 749.714a18.944 18.944 0 0 0 13.13-5.156L725.686 544a20.955 20.955 0 0 0 5.705-13.714zm365.714 128c0 121.16-98.304 219.428-219.429 219.428H256c-141.13 0-256-114.87-256-256A255.269 255.269 0 0 1 147.42 390.29c-.586-8.557-1.134-16.567-1.134-24.576 0-161.719 130.852-292.571 292.571-292.571a293.047 293.047 0 0 1 270.848 181.723 144.64 144.64 0 0 1 94.866-35.437c80.567 0 146.286 65.718 146.286 146.285 0 28.014-8.009 55.443-23.442 78.848a219.94 219.94 0 0 1 169.728 213.724z"/></svg>