<?xml version="1.0" standalone="no"?><!DOCTYPE svg PUBLIC "-//W3C//DTD SVG 1.1//EN" "http://www.w3.org/Graphics/SVG/1.1/DTD/svg11.dtd"><svg t="1644456276759" class="icon" viewBox="0 0 1137 1024" version="1.1" xmlns="http://www.w3.org/2000/svg" p-id="1376" xmlns:xlink="http://www.w3.org/1999/xlink" width="142.125" height="128"><defs><style type="text/css"></style></defs><path d="M1137.834667 157.184S958.520889 138.410667 838.940444 17.066667c0 0-109.795556 175.217778-289.052444 361.813333C443.960889 273.692444 337.066667 147.626667 243.370667 0c0 0-124.017778 187.562667-243.313778 229.034667 0 0 204.003556 91.306667 428.714667 266.808889-119.580444 106.552889-259.584 205.425778-412.444445 264.817777 0 0 174.876444 138.979556 207.416889 263.338667 0 0 85.731556-208.497778 309.361778-441.457778 123.790222 109.795556 245.361778 244.337778 334.961778 402.545778 0 0 159.459556-166.001778 240.014222-192.512 0 0-214.698667-103.537778-459.320889-320.739556A1962.097778 1962.097778 0 0 1 1137.834667 157.184" p-id="1377"></path></svg>