<?xml version="1.0" standalone="no"?><!DOCTYPE svg PUBLIC "-//W3C//DTD SVG 1.1//EN" "http://www.w3.org/Graphics/SVG/1.1/DTD/svg11.dtd"><svg t="1677910564054" class="icon" viewBox="0 0 1026 1024" version="1.1" xmlns="http://www.w3.org/2000/svg" p-id="7704" xmlns:xlink="http://www.w3.org/1999/xlink" width="128.25" height="128"><path d="M79.182267 969.78957l-25.583833-25.705371c-71.697527-72.041886-71.424065-188.992209 0.61782-260.689737l158.951969-158.232866c72.041886-71.707655 188.982081-71.424065 260.689736 0.607692l25.583833 25.725627c71.707655 72.041886 71.434194 188.982081-0.607692 260.679609L339.872003 970.397262c-72.041886 71.707655-188.951697 71.434194-260.689736-0.607692zM427.916444 571.518367a119.978656 119.978656 0 0 0-169.019399-0.395l-159.012738 158.21261a119.978656 119.978656 0 0 0-0.395 169.019399l25.583833 25.705371a119.948271 119.948271 0 0 0 169.0194 0.395l159.012737-158.242994a119.978656 119.978656 0 0 0 0.395-169.0194zM553.009841 498.230712l-25.624346-25.735756c-71.707655-72.031757-71.434194-188.982081 0.607692-260.679608l159.012738-158.21261c72.041886-71.707655 188.982081-71.434194 260.689736 0.607692l25.533192 25.735756c71.697527 72.031757 71.424065 188.982081-0.61782 260.679608l-158.951969 158.202482c-72.041886 71.717783-188.982081 71.444322-260.649223-0.597564zM901.693378 99.959509a119.958399 119.958399 0 0 0-169.009272-0.395L573.72201 257.777119a119.978656 119.978656 0 0 0-0.395 169.0194l25.583833 25.705371a119.978656 119.978656 0 0 0 169.019399 0.395l158.962097-158.21261a119.978656 119.978656 0 0 0 0.395-169.0194z"  p-id="7705"></path><path d="M637.67754 282.862645L743.480768 389.146961 388.573452 742.445919 282.771238 636.162615z"  p-id="7706"></path><path d="M277.426521 701.133036m21.533849-21.436353l382.089445-380.3595q21.533849-21.436353 42.970202 0.097496l2.858181 2.87118q21.436353 21.533849-0.097497 42.970202l-382.089445 380.359501q-21.533849 21.436353-42.970202-0.097497l-2.85818-2.87118q-21.436353-21.533849 0.097496-42.970202Z"  p-id="7707"></path></svg>