<?xml version="1.0" standalone="no"?><!DOCTYPE svg PUBLIC "-//W3C//DTD SVG 1.1//EN" "http://www.w3.org/Graphics/SVG/1.1/DTD/svg11.dtd"><svg t="1696818401047" class="icon" viewBox="0 0 1024 1024" version="1.1" xmlns="http://www.w3.org/2000/svg" p-id="20686" xmlns:xlink="http://www.w3.org/1999/xlink" width="200" height="200"><path d="M426.3424 426.31168v26.2912-26.2912zM426.3424 97.9712H150.57408c-28.99456 0-52.51072 23.5776-52.51072 52.57728v275.7632c0 28.99968 23.51616 52.51584 52.51072 52.51584H426.3424c28.99456 0 52.57728-23.51616 52.57728-52.51584v-275.7632c0-28.99456-23.58272-52.57728-52.57728-52.57728z m8.38656 336.79872h-292.608V142.09536h292.67968l-0.07168 292.67456zM426.3424 861.07136v26.35776-26.35776zM426.3424 532.79232H150.57408c-28.99456 0-52.51072 23.5776-52.51072 52.51072v275.76832c0 28.99968 23.51616 52.51072 52.51072 52.51072H426.3424c28.99456 0 52.57728-23.51104 52.57728-52.51072v-275.76832c0-28.93312-23.58272-52.51072-52.57728-52.51072z m7.72608 336.0768H142.78144v-291.35872h291.3536l-0.06656 291.35872zM868.89472 532.79232h-275.76832c-28.99968 0-52.51072 23.5776-52.51072 52.51072v275.76832c0 28.99968 23.51104 52.51072 52.51072 52.51072h275.76832c28.99456 0 52.57728-23.51104 52.57728-52.51072v-275.76832c0-28.93312-23.58272-52.51072-52.57728-52.51072z m7.72096 336.0768h-291.28704v-291.35872h291.35872l-0.07168 291.35872zM868.89472 868.93056v26.2912-26.2912zM888.24832 219.76576l-15.52896-1.31584a58.43968 58.43968 0 0 1-40.48384-21.79584 58.2656 58.2656 0 0 1-11.88864-44.52352l2.18112-15.45728-75.56096-29.5936-8.91904 12.94848c-14.85824 21.59616-43.85792 30.78144-68.70016 21.14048-5.21216-2.11968-10.10688-4.82304-14.45888-8.32512l-12.28288-9.5744-64.2048 52.11136 6.73792 14.0032a59.11552 59.11552 0 0 1 1.78688 46.43328 58.73664 58.73664 0 0 1-32.56832 32.96256l-14.39744 5.74464 12.02688 81.83808 15.45216 1.32096a58.19904 58.19904 0 0 1 40.63232 21.86752 57.77408 57.77408 0 0 1 11.88352 44.45184l-2.18112 15.32416 75.63264 29.7216 8.84736-12.94848c14.7968-21.66272 43.60192-30.90944 68.7616-21.13536 5.08416 1.98144 9.97888 4.75648 14.336 8.19712l12.35456 9.7024 64.13312-52.11136-6.6048-13.93152a58.6752 58.6752 0 0 1-1.84832-46.50496 58.38336 58.38336 0 0 1 32.5632-32.896l14.45888-5.8112-12.16-81.8432z m-66.5856 108.2624a104.00256 104.00256 0 0 0-2.77504 66.2528l-18.69312 15.12448a111.38048 111.38048 0 0 0-11.48416-5.2224 101.7088 101.7088 0 0 0-37.25312-7.07072 101.8368 101.8368 0 0 0-73.71264 31.44704l-20.9408-8.25856c-0.86016-46.10048-32.50176-86.00064-77.21472-97.29024l-3.56864-24.2432a103.74144 103.74144 0 0 0 42.54208-50.6624 104.18176 104.18176 0 0 0 2.90304-66.18624l18.688-15.32416c3.70688 2.048 7.53664 3.83488 11.49952 5.28896a99.59936 99.59936 0 0 0 37.19168 7.19872c27.80672-0.06144 54.49216-11.36128 73.70752-31.44192l20.93568 8.192a102.59968 102.59968 0 0 0 65.19296 93.59872c3.90144 1.51552 7.93088 2.76992 12.02176 3.83488l3.64032 24.10496a103.87456 103.87456 0 0 0-42.68032 50.65728z" fill="#030000" p-id="20687"></path><path d="M719.48288 229.61152c-32.83456 0-59.58144 26.752-59.58144 59.64288 0.06656 32.82944 26.68544 59.44832 59.58144 59.44832s59.50976-26.61888 59.57632-59.44832c0-32.89088-26.74688-59.64288-59.57632-59.64288z m0 100.27008c-22.39488 0-40.68864-18.23744-40.68864-40.6272 0.06656-22.52288 18.23232-40.68864 40.68864-40.75008a40.704 40.704 0 0 1 40.68352 40.68352 40.704 40.704 0 0 1-40.68352 40.69376z" fill="#030000" p-id="20688"></path></svg>