<?xml version="1.0" standalone="no"?><!DOCTYPE svg PUBLIC "-//W3C//DTD SVG 1.1//EN" "http://www.w3.org/Graphics/SVG/1.1/DTD/svg11.dtd"><svg t="1642817010453" class="icon" viewBox="0 0 1980 1024" version="1.1" xmlns="http://www.w3.org/2000/svg" p-id="1256" xmlns:xlink="http://www.w3.org/1999/xlink" width="247.5" height="128"><defs><style type="text/css"></style></defs><path d="M1644.57984 366.94528l-5.75488 13.3376c14.14144 102.46656 40.21248 181.68832 78.208 237.6704 37.79072-55.17312 61.94688-138.84416 72.45312-251.008h-144.90624z"  p-id="1257"></path><path d="M1840.52736 0H132.13184C59.15648 0 0 59.15648 0 132.13184v759.73632C0 964.8384 59.15648 1024 132.13184 1024h1708.3904c72.97536 0 132.13696-59.1616 132.13696-132.13184V132.13184C1972.65408 59.15648 1913.49248 0 1840.52736 0zM640.84992 765.2864c-106.51136-53.15072-188.3648-121.86624-245.5552-206.14144v253.43488H348.0064v-252.83072c-61.44 81.44896-143.49312 152.38656-246.15936 212.8128-7.68-10.91584-18.59584-24.45824-32.7424-40.6272 109.74208-57.6 196.44416-126.91456 260.10624-207.95904H78.80192v-44.87168h269.19936V365.12256H114.57536V320.256h233.42592V216.576h47.28832v103.68h235.8528v44.86656H395.29472v113.98656h269.19936v44.87168H412.26752c65.0752 86.90688 152.58624 152.38656 262.528 196.43904a718.35648 718.35648 0 0 0-33.9456 44.86656z m248.58112-385.00352H823.3472v126.4128c20.61312-6.87104 41.83552-14.04416 63.66208-21.52448a1143.92064 1143.92064 0 0 0-2.42688 48.50688 3901.67552 3901.67552 0 0 1-61.2352 22.12864v185.22624c0 42.43968-19.00032 64.46592-56.99072 66.08384-16.17408 0.80896-34.9696 1.00864-56.38656 0.60928-1.61792-16.17408-4.0448-32.7424-7.27552-49.72032 18.59072 2.0224 35.36384 3.03616 50.32448 3.03616 15.36 0 23.04-8.28928 23.04-24.8576v-164.31104a9148.13952 9148.13952 0 0 1-78.8224 26.07104l-7.27552-50.92352a2353.03424 2353.03424 0 0 0 86.0928-25.46688V380.28288h-78.21312v-43.65312h78.21312V217.1904h47.29344v119.43936h66.08384v43.65312z m70.9376 403.80416c-11.7248 8.48384-21.62688 16.9728-29.70624 25.46688l-32.13312-39.40864c12.93312-11.7248 19.4048-28.90752 19.4048-51.53792v-494.7456h47.29344v185.5232h100.03968v44.87168h-100.0448v271.01696c27.07968-15.76448 60.22144-36.37248 99.43552-61.83936 1.20832 18.18624 2.82624 35.16416 4.84864 50.92864-51.74272 31.92832-88.12032 55.168-109.13792 69.72416z m322.55488-50.32448c-7.28064 43.24352-30.52032 64.87552-69.72416 64.87552h-58.81344c-48.1024 0-72.15104-24.65792-72.15104-73.96864V223.86176h47.29344v224.93696c44.2624-38.1952 84.47488-78.61248 120.64768-121.26208l37.59616 33.95584c-55.7824 57.19552-108.52864 106.20416-158.24384 147.02592v207.66208c0 24.25344 10.30656 36.3776 30.91968 36.3776h35.76832c24.25344 0 38.20032-11.11552 41.83552-33.34656 4.84864-24.6528 8.68864-58.60864 11.52-101.8624a568.50944 568.50944 0 0 0 46.08 17.58208c-3.6352 38.00064-7.87456 70.9376-12.72832 98.83136z m75.18208 54.56384l-32.7424-41.83552c14.14144-12.93312 21.2224-31.11936 21.2224-54.56384V460.3136h151.57248V308.74112h-163.09248v-42.43968h210.38592v269.19936h-47.28832v-32.7424h-104.28416v200.68352c49.31072-23.44448 99.83488-49.72032 151.57248-78.8224 2.83136 19.39968 6.0672 35.76832 9.70752 49.11104-52.55168 26.27584-106.51648 54.97344-161.88416 86.0928-14.96576 10.51136-26.68544 20.0192-35.16928 28.50304z m520.81664 16.97792c-69.52448-33.152-123.38688-69.92896-161.58208-110.35136-41.23136 42.0352-102.97344 82.048-185.22624 120.04864-9.70752-14.15168-21.632-28.4928-35.77344-43.04896 84.67968-35.36896 147.6352-73.96352 188.86656-115.80416-37.39136-51.93728-63.0528-121.55904-76.99968-208.8704a1559.1168 1559.1168 0 0 1-31.22688 60.93312c-10.112-14.55104-20.20864-27.28448-30.31552-38.20032 38.39488-69.91872 72.7552-155.008 103.07072-255.25248l47.8976 13.94688a2120.32512 2120.32512 0 0 1-34.8672 93.36832h245.248v44.86656h-70.93248c-10.91584 130.95936-40.32 227.968-88.2176 291.02592 39.20896 41.83552 95.28832 75.1872 168.24832 100.03968-11.71968 11.32544-24.45312 27.0848-38.19008 47.29856z"  p-id="1258"></path></svg>