<?xml version="1.0" standalone="no"?><!DOCTYPE svg PUBLIC "-//W3C//DTD SVG 1.1//EN" "http://www.w3.org/Graphics/SVG/1.1/DTD/svg11.dtd"><svg t="1642668132297" class="icon" viewBox="0 0 1024 1024" version="1.1" xmlns="http://www.w3.org/2000/svg" p-id="5047" xmlns:xlink="http://www.w3.org/1999/xlink" width="128" height="128"><defs><style type="text/css"></style></defs><path d="M320.832 88.512h190.624v26.272h-190.624v-26.272zM225.536 215.584h31.744a31.808 31.808 0 0 0 31.808-31.776V56.736A31.808 31.808 0 0 0 257.28 24.96h-31.744a31.776 31.776 0 0 0-31.776 31.776v127.072c0 17.536 14.24 31.776 31.776 31.776zM802.848 119.2v349.696l26.336-0.064V111.2c0-12.544-14.24-22.656-31.776-22.656h-127.072V115.2h100.736c17.568 0 31.744 10.144 31.744 22.656v-18.656zM574.976 215.584h31.808c17.6 0 31.744-14.24 31.744-31.776V56.736a31.68 31.68 0 0 0-31.744-31.776h-31.808a31.776 31.776 0 0 0-31.744 31.776v127.072c0 17.536 14.24 31.776 31.744 31.776zM29.472 919.936V146.592c0-17.536 14.208-31.776 31.776-31.776h100.736v-26.304H34.88a31.744 31.744 0 0 0-31.744 31.776v826.048c0 17.536 14.24 31.68 31.744 31.68h381.28v-26.272H61.248a31.744 31.744 0 0 1-31.776-31.808z" p-id="5048"></path><path d="M177.856 469.76h476.608a15.904 15.904 0 0 0 15.872-15.872v-13.184a15.84 15.84 0 0 0-15.872-15.872H177.856a15.84 15.84 0 0 0-15.872 15.872v13.184a15.904 15.904 0 0 0 15.872 15.872zM168.672 679.008c-3.712 0-6.656 7.104-6.656 15.84v13.152c0 8.768 2.976 15.904 6.656 15.904h200.48c3.712 0 6.656-7.136 6.656-15.904v-13.152c0-8.736-2.976-15.84-6.656-15.84H168.672zM550.656 869.92c0.064-0.48 0-0.224 0 0z" p-id="5049"></path><path d="M821.28 727.744a116 116 0 0 0 44.576-91.232 116.256 116.256 0 0 0-232.448 0c0 36.96 17.44 70.144 44.512 91.232a193.728 193.728 0 0 0-121.952 179.712v38.88a19.2 19.2 0 0 0 19.328 19.264h348.352a19.2 19.2 0 0 0 19.296-19.264v-38.88a192.832 192.832 0 0 0-121.664-179.712z m-240.896 8.416a13.856 13.856 0 0 0 10.208-13.568 13.568 13.568 0 0 0-6.624-11.712 73.536 73.536 0 0 1-26.784-56.608c0-36.128 26.176-66.208 60.8-72.256v-0.352a9.984 9.984 0 0 0 7.552-9.952 10.656 10.656 0 0 0-10.56-10.496c-0.608 0-1.216 0-1.504 0.288v-0.288c-0.928 0-2.112 0.288-3.04 0.288a96.64 96.64 0 0 0-74.048 94.24c0 24.416 9.312 47.552 25.312 65.056a154.24 154.24 0 0 0-83.136 137.28v22.848h0.32c0 0.672-0.32 1.248-0.32 1.824a11.456 11.456 0 1 0 22.848 0c0-0.576 0-1.12-0.288-1.824a139.04 139.04 0 0 1-0.896-15.904 144.736 144.736 0 0 1 80.16-128.864z m440.224 121.952a153.92 153.92 0 0 0-83.136-137.28c16-17.504 25.312-40.384 25.312-65.056a96.736 96.736 0 0 0-71.648-93.344 9.216 9.216 0 0 0-3.04-0.64 10.816 10.816 0 0 0-3.936 20.832 73.28 73.28 0 0 1 56.352 71.36c0 23.424-10.848 44.192-28.032 57.44a13.952 13.952 0 0 0 6.624 24.736 144 144 0 0 1 78.368 144.544v1.248c0 6.272 5.088 11.68 11.68 11.68 6.624 0 11.744-5.12 11.744-11.68v-1.248l-0.288-22.592z" p-id="5050"></path></svg>