<?xml version="1.0" standalone="no"?><!DOCTYPE svg PUBLIC "-//W3C//DTD SVG 1.1//EN" "http://www.w3.org/Graphics/SVG/1.1/DTD/svg11.dtd"><svg t="1641784040895" class="icon" viewBox="0 0 1024 1024" version="1.1" xmlns="http://www.w3.org/2000/svg" p-id="5629" xmlns:xlink="http://www.w3.org/1999/xlink" width="128" height="128"><defs><style type="text/css"></style></defs><path d="M694.857143 923.428571a192 192 0 1 1 0-384 192 192 0 0 1 0 384M694.857143 475.428571a256 256 0 1 0 0 512 256 256 0 0 0 0-512"  p-id="5630"></path><path d="M809.691429 159.451429c0-26.843429-19.894857-48.64-44.617143-48.64H184.758857c-24.649143 0-44.617143 21.796571-44.617143 48.713142v705.682286c0 26.843429 19.968 48.64 44.617143 48.64h253.659429c11.556571 26.331429 25.819429 50.907429 42.861714 72.996572H162.377143c-49.225143 0-89.234286-43.593143-89.234286-97.28V135.094857C73.142857 81.408 113.152 37.888 162.377143 37.888h625.078857c49.298286 0 89.234286 43.52 89.234286 97.28v337.92a297.398857 297.398857 0 0 0-66.925715-31.597714V159.451429z" p-id="5631"></path><path d="M219.428571 256m43.885715 0l431.542857 0q43.885714 0 43.885714 43.885714l0 0q0 43.885714-43.885714 43.885715l-431.542857 0q-43.885714 0-43.885715-43.885715l0 0q0-43.885714 43.885715-43.885714Z"  p-id="5632"></path><path d="M219.428571 402.285714m43.885715 0l182.857143 0q43.885714 0 43.885714 43.885715l0 0q0 43.885714-43.885714 43.885714l-182.857143 0q-43.885714 0-43.885715-43.885714l0 0q0-43.885714 43.885715-43.885715Z" p-id="5633"></path><path d="M219.428571 548.571429m43.885715 0l109.714285 0q43.885714 0 43.885715 43.885714l0 0q0 43.885714-43.885715 43.885714l-109.714285 0q-43.885714 0-43.885715-43.885714l0 0q0-43.885714 43.885715-43.885714Z"  p-id="5634"></path><path d="M219.428571 694.857143m43.885715 0l36.571428 0q43.885714 0 43.885715 43.885714l0 0q0 43.885714-43.885715 43.885714l-36.571428 0q-43.885714 0-43.885715-43.885714l0 0q0-43.885714 43.885715-43.885714Z"  p-id="5635"></path><path d="M780.361143 768H609.28C595.968 768 585.142857 751.616 585.142857 731.428571s10.825143-36.571429 24.210286-36.571428H780.434286c13.385143 0 24.210286 16.384 24.210285 36.571428s-10.825143 36.571429-24.210285 36.571429" p-id="5636"></path><path d="M658.285714 816.932571V645.851429C658.285714 632.539429 674.669714 621.714286 694.857143 621.714286s36.571429 10.825143 36.571428 24.210285v171.008c0 13.385143-16.384 24.210286-36.571428 24.210286s-36.571429-10.825143-36.571429-24.210286"  p-id="5637"></path></svg>