<?xml version="1.0" standalone="no"?><!DOCTYPE svg PUBLIC "-//W3C//DTD SVG 1.1//EN" "http://www.w3.org/Graphics/SVG/1.1/DTD/svg11.dtd"><svg class="icon" width="128px" height="128.00px" viewBox="0 0 1024 1024" version="1.1" xmlns="http://www.w3.org/2000/svg"><path d="M896 0h-768c-70.4 0-128 57.6-128 128v768c0 70.4 57.6 128 128 128h768c70.4 0 128-57.6 128-128v-768c0-70.4-57.6-128-128-128z m0 128v217.6h-768V128h768z m0 307.2v192h-768v-192h768z m-768 460.8v-185.6h768v185.6h-768z"  /><path d="M249.6 281.6c25.6 0 44.8-19.2 44.8-44.8 0-25.6-19.2-44.8-44.8-44.8-25.6 0-44.8 19.2-44.8 44.8 0 25.6 19.2 44.8 44.8 44.8zM249.6 569.6c25.6 0 44.8-19.2 44.8-44.8 0-25.6-19.2-44.8-44.8-44.8-25.6 0-44.8 19.2-44.8 44.8 0 25.6 19.2 44.8 44.8 44.8zM249.6 761.6c-25.6 0-44.8 19.2-44.8 44.8 0 25.6 19.2 44.8 44.8 44.8 25.6 0 44.8-19.2 44.8-44.8 0-25.6-19.2-44.8-44.8-44.8z"  /></svg>