<?xml version="1.0" standalone="no"?><!DOCTYPE svg PUBLIC "-//W3C//DTD SVG 1.1//EN" "http://www.w3.org/Graphics/SVG/1.1/DTD/svg11.dtd"><svg class="icon" width="128px" height="128.00px" viewBox="0 0 1024 1024" version="1.1" xmlns="http://www.w3.org/2000/svg"><path d="M897.13 691.35c-23.29-25.99-50.5-46.42-80.86-60.75-5.35-2.53-10.77-4.82-16.23-6.93 48.35-28.74 80.83-81.5 80.83-141.71 0-90.84-73.9-164.74-164.74-164.74s-164.74 73.9-164.74 164.74c0 60.21 32.48 112.97 80.83 141.71-5.46 2.1-10.88 4.4-16.23 6.93-30.36 14.33-57.56 34.76-80.86 60.75-47.32 52.79-73.38 122.76-73.38 197.02 0 18.15 1.59 36.33 4.72 54.02 2.54 14.33 14.99 24.77 29.54 24.77h440.22c14.55 0 27-10.44 29.54-24.77a311.03 311.03 0 0 0 4.72-54.02c0-74.26-26.06-144.23-73.38-197.02z m-181-314.13c57.75 0 104.74 46.98 104.74 104.74S773.88 586.7 716.13 586.7s-104.74-46.98-104.74-104.74 46.98-104.74 104.74-104.74zM909.8 907.16H522.45c-0.47-6.24-0.7-12.52-0.7-18.79 0-121.48 87.2-220.31 194.38-220.31s194.38 98.83 194.38 220.31c0 6.27-0.23 12.55-0.7 18.79z m-10.3-295.39c3.89-5.48 7.53-11.13 10.92-16.95 9.39-16.11 16.68-33.3 21.78-51.12v97.34c-10.33-10.59-21.24-20.36-32.7-29.27zM160.66 818.21h247.78a370.418 370.418 0 0 0-6.53 60H160.66c-58.25 0-105.64-47.39-105.64-105.64V149.66c0-58.25 47.39-105.64 105.64-105.64h665.92c58.25 0 105.64 47.39 105.64 105.64V420.1c-11.01-38.41-32.02-72.63-60-99.68V149.66c0-25.16-20.47-45.64-45.64-45.64H160.66c-25.16 0-45.64 20.47-45.64 45.64v622.91c0 25.16 20.47 45.64 45.64 45.64z m350.67-515.55H232.04c-16.57 0-30-13.43-30-30s13.43-30 30-30h279.29c16.57 0 30 13.43 30 30s-13.43 30-30 30z m-63.25 85.53c16.57 0 30 13.43 30 30s-13.43 30-30 30H232.04c-16.57 0-30-13.43-30-30s13.43-30 30-30h216.05z m0 205.53H232.04c-16.57 0-30-13.43-30-30s13.43-30 30-30h216.05c16.57 0 30 13.43 30 30s-13.43 30-30 30z" /></svg>