<?xml version="1.0" standalone="no"?><!DOCTYPE svg PUBLIC "-//W3C//DTD SVG 1.1//EN" "http://www.w3.org/Graphics/SVG/1.1/DTD/svg11.dtd"><svg t="1642668030409" class="icon" viewBox="0 0 1091 1024" version="1.1" xmlns="http://www.w3.org/2000/svg" p-id="2629" xmlns:xlink="http://www.w3.org/1999/xlink" width="136.375" height="128"><defs><style type="text/css"></style></defs><path d="M989.87500599 18.763743H214.144344a81.6473 81.6473 0 0 0-81.659809 81.659809v741.49308599H18.763743v81.65981001a81.659809 81.659809 0 0 0 81.659809 81.659809h766.974249a81.659809 81.659809 0 0 0 81.65981-81.659809V182.13339801h122.489714V100.423552A81.659809 81.659809 0 0 0 989.87500599 18.763743z m-889.40141699 945.692646a40.829905 40.829905 0 0 1-40.81739501-40.829905v-40.879941h685.25189301v40.81739501a81.19696999 81.19696999 0 0 0 10.945517 40.82990499zM908.215197 100.423552v823.102859a40.829905 40.829905 0 0 1-40.817396 40.829905h-40.829905a40.829905 40.829905 0 0 1-40.842413-40.779868v-81.65981001H173.314439V100.423552a40.829905 40.829905 0 0 1 40.829905-40.879941H919.173223a81.309553 81.309553 0 0 0-10.94551699 40.817396z m122.489714 40.829905h-81.65981V100.423552a40.829905 40.829905 0 0 1 81.65981 0z m-714.48580501 84.949719h204.13701401a20.414952 20.414952 0 1 0 0-40.829905H316.21910601a20.414952 20.414952 0 1 0-2e-8 40.829905z m0 163.30710999h449.07891501a20.414952 20.414952 0 0 0 0-40.82990499h-449.07891501a20.414952 20.414952 0 1 0 0 40.82990499z m0 163.30711001h285.796824a20.414952 20.414952 0 1 0 0-40.817396H316.21910601a20.414952 20.414952 0 1 0-2e-8 40.817396z m0 163.31961799h449.07891501a20.414952 20.414952 0 0 0 0-40.829904h-449.07891501a20.414952 20.414952 0 1 0 0 40.829904z m0 0" p-id="2630"></path><path d="M867.397801 1008.363548H100.423552a84.887173 84.887173 0 0 1-84.7871-84.7871v-84.7871h113.733301V100.423552A84.874664 84.874664 0 0 1 214.156853 15.636452h775.71815299a84.887173 84.887173 0 0 1 84.81211801 84.7871v84.7871h-122.514732v738.365796a84.887173 84.887173 0 0 1-84.774591 84.7871zM21.891033 845.043929v78.532519a78.620083 78.620083 0 0 0 78.532519 78.532519h766.974249a78.620083 78.620083 0 0 0 78.532519-78.532519V178.94356199h122.502223V100.423552a78.620083 78.620083 0 0 0-78.55753701-78.532519H214.144344a78.620083 78.620083 0 0 0-78.532519 78.532519v744.620377z m845.506768 122.489714h-40.829905a44.007232 44.007232 0 0 1-43.957195-43.957195v-78.532519H170.187149V100.423552a44.007232 44.007232 0 0 1 43.957195-43.94468601h710.432837l-2.714489 4.690936a78.21978999 78.21978999 0 0 0-10.53271401 39.25375001v823.102859a44.007232 44.007232 0 0 1-43.93217699 44.007232zM176.44172999 838.789348h612.423552v84.7871a37.752651 37.752651 0 0 0 37.70261401 37.70261399h40.829905a37.74014199 37.74014199 0 0 0 37.69010499-37.70261399v-823.102859a84.499389 84.499389 0 0 1 8.84397801-37.690105H214.144344a37.74014199 37.74014199 0 0 0-37.70261399 37.690105z m584.85335901 128.744295H100.423552a44.007232 44.007232 0 0 1-43.982213-43.957195v-43.957196h691.594038v43.94468599a78.157244 78.157244 0 0 0 10.532715 39.26626zM62.69592 885.873833v37.69010501a37.74014199 37.74014199 0 0 0 37.690105 37.70261499h650.23874901a84.411825 84.411825 0 0 1-8.84397801-37.70261499v-37.69010501z m702.627119-166.609528h-449.078915a23.542243 23.542243 0 1 1 0-47.084486h449.078915a23.542243 23.542243 0 0 1 0 47.084486z m-449.078915-40.829905a17.28766201 17.28766201 0 1 0 0 34.575324h449.078915a17.28766201 17.28766201 0 0 0 0-34.575324z m285.796824-122.48971401H316.21910601a23.542243 23.542243 0 1 1-2e-8-47.071976h285.78431401a23.542243 23.542243 0 1 1 0 47.071976zM316.21910601 515.12728999a17.28766201 17.28766201 0 1 0-2e-8 34.56281501h285.78431401a17.28766201 17.28766201 0 1 0 0-34.56281501z m449.07891499-122.48971399h-449.07891501a23.542243 23.542243 0 1 1 2e-8-47.084485h449.07891499a23.542243 23.542243 0 0 1 0 47.084485z m-449.07891501-40.829904a17.28766201 17.28766201 0 1 0 2e-8 34.575323h449.07891499a17.28766201 17.28766201 0 0 0 0-34.575323z m204.13701401-122.477205H316.21910601a23.542243 23.542243 0 1 1-2e-8-47.084486h204.13701401a23.542243 23.542243 0 0 1 0 47.084486z m-204.13701399-40.82990499a17.28766201 17.28766201 0 1 0-2e-8 34.575324h204.13701401a17.28766201 17.28766201 0 0 0 0-34.575324z m717.61309499-44.132324h-87.91439V100.423552a43.957195 43.957195 0 0 1 87.91439 0z m-81.659809-6.25458101h75.405228V100.423552a37.70261399 37.70261399 0 0 0-75.405228 0z" p-id="2631"></path><path d="M867.397801 1020.87271001H100.423552A97.408844 97.408844 0 0 1 3.12728999 923.576448v-97.29626199h113.73330101V100.423552A97.396335 97.396335 0 0 1 214.156853 3.12728999h775.71815299a97.408844 97.408844 0 0 1 97.32128 97.29626201v97.29626199h-122.514732v725.85663401a97.408844 97.408844 0 0 1-97.28375299 97.29626199zM34.400195 857.553091v66.023357a66.098412 66.098412 0 0 0 66.023357 66.023357h766.974249a66.098412 66.098412 0 0 0 66.02335699-66.023357V166.4344h122.50222301V100.423552a66.098412 66.098412 0 0 0-66.04837501-66.023357H214.144344a66.085903 66.085903 0 0 0-66.023357 66.023357v757.129539z m832.997606 122.489714h-40.829905a56.528903 56.528903 0 0 1-56.466357-56.466357v-66.023357H157.677987V100.423552a56.528903 56.528903 0 0 1 56.466357-56.453848h732.161251l-13.609968 23.479697a65.698119 65.698119 0 0 0-8.843978 32.961642v823.165405a56.528903 56.528903 0 0 1-56.453848 56.466357zM188.950892 826.28018601h612.423552v97.29626199a25.218471 25.218471 0 0 0 25.193452 25.193452h40.829905a25.218471 25.218471 0 0 0 25.180943-25.193452v-823.102859a96.895969 96.895969 0 0 1 3.314928-25.18094299h-681.749328a25.218471 25.218471 0 0 0-25.193452 25.18094299z m594.047593 153.76261899H100.423552a56.528903 56.528903 0 0 1-56.491375-56.466357v-56.46635799h716.612362v56.453848a65.64808199 65.64808199 0 0 0 8.843978 32.98666099zM75.20508199 898.382995v25.18094299a25.218471 25.218471 0 0 0 25.18094301 25.19345301h632.20053701a96.78338599 96.78338599 0 0 1-3.314928-25.218471v-25.155925z m690.11795701-166.609528h-449.078915a36.051405 36.051405 0 1 1 0-72.10281h449.078915a36.051405 36.051405 0 0 1 0 72.10281z m-449.078915-40.82990501a4.7785 4.7785 0 1 0 0 9.557h449.078915a4.7785 4.7785 0 0 0 0-9.557z m285.796824-122.48971399H316.21910601a36.051405 36.051405 0 1 1-2e-8-72.0903h285.78431401a36.051405 36.051405 0 1 1 0 72.0903zM316.21910601 527.636452a4.7785 4.7785 0 1 0-2e-8 9.544491h285.78431401a4.7785 4.7785 0 1 0 0-9.544491z m449.07891499-122.48971401h-449.07891501a36.051405 36.051405 0 1 1 2e-8-72.10280899h449.07891499a36.051405 36.051405 0 0 1 0 72.10280899z m-449.07891501-40.829904a4.7785 4.7785 0 1 0 2e-8 9.55699901h449.07891499a4.7785 4.7785 0 0 0 0-9.55699901z m204.13701401-122.47720499H316.21910601a36.051405 36.051405 0 1 1-2e-8-72.10281h204.13701401a36.051405 36.051405 0 0 1 0 72.10281z m-204.13701399-40.829905a4.7785 4.7785 0 1 0-2e-8 9.557h204.13701401a4.7785 4.7785 0 0 0 0-9.557z m730.12225699-44.132324h-112.932714V100.423552a56.466357 56.466357 0 0 1 112.932714 0z m-81.65980899-31.272905h50.386904V100.423552a25.193452 25.193452 0 0 0-50.386904 0z" p-id="2632"></path><path d="M867.397801 1024H100.423552A100.536135 100.536135 0 0 1 0 923.576448v-100.423553h113.733301V100.423552A100.536135 100.536135 0 0 1 214.156853 0h775.71815299a100.536135 100.536135 0 0 1 100.42355301 100.423552v100.473589h-122.489715v722.679307a100.536135 100.536135 0 0 1-100.411043 100.423552zM6.254581 829.407476v94.168972a94.269045 94.269045 0 0 0 94.168971 94.168971h766.974249a94.269045 94.269045 0 0 0 94.168972-94.168971V194.64256h122.489714V100.423552A94.269045 94.269045 0 0 0 989.87500599 6.254581H214.144344a94.269045 94.269045 0 0 0-94.168971 94.168971v728.983924zM867.397801 992.727095H100.423552A69.22570201 69.22570201 0 0 1 31.272905 923.576448v-69.150648h113.73330099V100.423552A69.22570201 69.22570201 0 0 1 214.156853 31.272905h775.71815299a69.22570201 69.22570201 0 0 1 69.150648 69.150647v69.200685h-122.48971499v753.952211a69.22570201 69.22570201 0 0 1-69.138138 69.150647zM37.52748601 860.680381v62.896067a62.971121 62.971121 0 0 0 62.89606599 62.89606601h766.974249a62.971121 62.971121 0 0 0 62.896067-62.89606601V163.369656h122.48971399V100.423552A62.971121 62.971121 0 0 0 989.87500599 37.52748601H214.144344a62.958612 62.958612 0 0 0-62.89606599 62.89606599v760.256829z m829.87031499 122.489714h-40.829905a59.65619399 59.65619399 0 0 1-59.606156-59.593647v-62.896067H154.550696V100.423552a59.65619399 59.65619399 0 0 1 59.593648-59.643684h737.590227l-16.324456 28.170633a62.54581001 62.54581001 0 0 0-8.418666 31.397996v823.227951a59.65619399 59.65619399 0 0 1-59.593648 59.593647zM160.805277 854.4258h612.411044v69.150648a53.401613 53.401613 0 0 0 53.339066 53.33906601h40.829905a53.401613 53.401613 0 0 0 53.326557-53.33906601V100.39853399a68.800391 68.800391 0 0 1 9.26929-34.53779598l10.88297-18.76374301h-726.78231101a53.401613 53.401613 0 0 0-53.33906699 53.326557z m627.62218499 128.744295h-688.00390999a59.65619399 59.65619399 0 0 1-59.58113801-59.593647v-59.593648h722.829416v59.58113801a62.54581001 62.54581001 0 0 0 8.41866601 31.42301499zM47.08448601 870.237381v53.32655701a53.401613 53.401613 0 0 0 53.32655699 53.33906699H777.569509l-10.89548-18.76374299a68.800391 68.800391 0 0 1-9.269289-34.56281401v-53.339067z m820.31331499 81.65980901h-40.829905a28.35827001 28.35827001 0 0 1-28.333251-28.32074201v-94.168972H185.823601V100.423552a28.345761 28.345761 0 0 1 28.320743-28.370779h685.827315l-1.05077 3.940386a93.68111399 93.68111399 0 0 0-3.202345 24.367848v823.102858a28.345761 28.345761 0 0 1-28.320743 28.43332499zM192.07818201 823.152895h612.41104398v100.423553a22.09118 22.09118 0 0 0 22.06616101 22.066161h40.829905a22.09118 22.09118 0 0 0 22.053653-22.066161v-823.102859a99.910677 99.910677 0 0 1 2.501832-22.053653H214.144344a22.09118 22.09118 0 0 0-22.06616199 22.053653zM736.664549 951.89719001H100.423552a28.345761 28.345761 0 0 1-28.308233-28.32074201v-28.320743h660.283606v28.295724a93.631077 93.631077 0 0 0 3.20234499 24.405375zM78.357391 901.51028601v22.053652a22.09118 22.09118 0 0 0 22.053652 22.06616199h628.185097a99.848131 99.848131 0 0 1-2.501833-22.09118v-22.02863399z m686.965648-166.60952901h-449.078915a39.178695 39.178695 0 1 1 0-78.35739h449.078915a39.178695 39.178695 0 0 1 0 78.35739z m-449.078915-72.102809a32.92411401 32.92411401 0 1 0 0 65.848228h449.078915a32.92411401 32.92411401 0 0 0 0-65.848228z m449.078915 40.829904h-449.078915a7.90578999 7.90578999 0 1 1 0-15.81158h449.078915a7.90578999 7.90578999 0 0 1 0 15.81158z m-449.078915-9.556999a1.651209 1.651209 0 1 0 0 3.302418h449.078915a1.651209 1.651209 0 0 0 0-3.302418z m285.796824-122.489714H316.21910601a39.178695 39.178695 0 1 1-2e-8-78.344882h285.78431401a39.178695 39.178695 0 1 1 0 78.344882zM316.21910601 499.49083801a32.92411401 32.92411401 0 1 0-2e-8 65.83571998h285.78431401a32.92411401 32.92411401 0 1 0 0-65.83572z m285.796824 40.817396H316.21910601a7.90578999 7.90578999 0 1 1-2e-8-15.799072h285.78431401a7.90578999 7.90578999 0 1 1 0 15.799072z m-285.79682402-9.54449101a1.651209 1.651209 0 1 0 2e-8 3.28991h285.78431399a1.651209 1.651209 0 1 0 0-3.28991z m449.07891501-122.489714h-449.07891501a39.178695 39.178695 0 1 1 2e-8-78.35739101h449.07891499a39.178695 39.178695 0 0 1 0 78.35739101z m-449.07891501-72.10281a32.92411401 32.92411401 0 1 0 2e-8 65.848229h449.07891499a32.92411401 32.92411401 0 0 0 0-65.848229z m449.07891501 40.829905h-449.07891501a7.90578999 7.90578999 0 1 1 2e-8-15.811581h449.07891499a7.90578999 7.90578999 0 0 1 0 15.811581z m-449.07891501-9.557a1.651209 1.651209 0 1 0 2e-8 3.302419h449.07891499a1.651209 1.651209 0 0 0 0-3.302419z m204.13701401-122.477205H316.21910601a39.178695 39.178695 0 1 1-2e-8-78.357391h204.13701401a39.178695 39.178695 0 0 1 0 78.357391z m-204.13701399-72.10281a32.92411401 32.92411401 0 1 0-2e-8 65.84822899h204.13701401a32.92411401 32.92411401 0 0 0 0-65.84822899z m204.13701399 40.82990499H316.21910601a7.90578999 7.90578999 0 1 1-2e-8-15.81158099h204.13701401a7.90578999 7.90578999 0 0 1 0 15.81158099z m-204.13701399-9.557a1.651209 1.651209 0 1 0-2e-8 3.30241901h204.13701401a1.651209 1.651209 0 0 0 0-3.30241901z m733.249548-44.13232299h-119.187296V100.423552a59.593648 59.593648 0 0 1 119.187296 0z m-112.93271501-6.25458101h106.678134V100.423552a53.339067 53.339067 0 0 0-106.678134 0z m81.65981-25.018324h-56.641486V100.423552a28.320743 28.320743 0 0 1 56.641486 0z m-50.386905-6.25458099h44.132324V100.423552a22.06616199 22.06616199 0 0 0-44.132324 0z" p-id="2633"></path></svg>