<?xml version="1.0" standalone="no"?><!DOCTYPE svg PUBLIC "-//W3C//DTD SVG 1.1//EN" "http://www.w3.org/Graphics/SVG/1.1/DTD/svg11.dtd"><svg t="1696815362746" class="icon" viewBox="0 0 1024 1024" version="1.1" xmlns="http://www.w3.org/2000/svg" p-id="18571" xmlns:xlink="http://www.w3.org/1999/xlink" width="200" height="200"><path d="M117.248 176.128h16.384v-15.872c0 8.192-6.656 15.872-16.384 15.872zM133.632 873.472v-16.384h-16.384c9.216 0 16.384 7.168 16.384 16.384zM879.104 159.744v16.384h16.384c-9.216 0-16.384-7.168-16.384-16.384z" p-id="18572"></path><path d="M133.632 857.088v16.384c0-9.216-7.168-16.384-16.384-16.384h16.384v-680.96h-16.384c9.728 0 16.384-7.68 16.384-15.872v15.872h745.472v-16.384c0 9.216 7.168 16.384 16.384 16.384h-16.384v231.936h49.664v-235.52c0-26.112-20.992-47.104-47.104-47.104H131.584c-26.112 0-47.104 20.992-47.104 47.104v688.128c0 26.112 20.992 47.104 47.104 47.104H368.64v-50.688H133.632z" p-id="18573"></path><path d="M473.6 742.4c-3.072-9.216-12.288-9.216-18.432-12.288-9.216-3.072-15.36 0-24.576 3.072-6.144 6.144-9.216 12.288-12.288 18.432 0 9.216 0 15.36 6.144 24.576 27.648 43.52 65.024 71.168 102.4 77.312 37.376 9.216 80.384-3.072 126.976-34.304 3.072 0 3.072 0 6.144-3.072 71.168-65.024 142.336-58.88 213.504 24.576 3.072 6.144 12.288 9.216 21.504 9.216 6.144 3.072 15.36 0 21.504-6.144s9.216-12.288 9.216-21.504c3.072-9.216 0-15.36-6.144-21.504-98.816-114.688-198.144-123.904-300.544-30.72h-3.072v3.072c-27.648 18.432-55.808 21.504-77.312 18.432-24.576-2.56-46.592-20.992-65.024-49.152zM387.584 546.304l116.736-199.68c4.608-8.192 13.312-12.8 22.528-12.8s17.92 5.12 22.528 12.8l246.784 246.784c4.608 8.192 4.608 17.92 0 26.112s-13.312 12.8-22.528 12.8H255.488c-14.336 0-26.112-11.776-26.112-26.112 0-4.608 1.024-9.216 3.584-13.312l68.608-117.248c7.168-12.288 23.04-16.384 35.328-9.216 4.096 2.048 7.168 5.632 9.216 9.216l41.472 70.656zM336.896 399.36c-34.816 0-62.976-29.184-62.976-65.024S302.08 269.312 336.896 269.312s62.976 29.184 62.976 65.024S371.712 399.36 336.896 399.36z" p-id="18574"></path></svg>